<?xml version="1.0" encoding="UTF-8"?>
<svg xmlns="http://www.w3.org/2000/svg" xmlns:xlink="http://www.w3.org/1999/xlink" viewBox="0 0 30 30" width="30px" height="30px">
<g id="surface40505219">
<path style=" stroke:none;fill-rule:nonzero;fill:rgb(18.431373%,50.588238%,54.11765%);fill-opacity:1;" d="M 13 3 C 12.734375 2.996094 12.472656 3.101562 12.285156 3.289062 C 12.09375 3.476562 11.988281 3.730469 11.984375 4 L 6 4 C 5.640625 3.996094 5.304688 4.183594 5.121094 4.496094 C 4.941406 4.808594 4.941406 5.191406 5.121094 5.503906 C 5.304688 5.816406 5.640625 6.003906 6 6 L 24 6 C 24.359375 6.003906 24.695312 5.816406 24.878906 5.503906 C 25.058594 5.191406 25.058594 4.808594 24.878906 4.496094 C 24.695312 4.183594 24.359375 3.996094 24 4 L 18.015625 4 C 18.011719 3.730469 17.90625 3.476562 17.714844 3.289062 C 17.527344 3.101562 17.265625 2.996094 17 3 Z M 6 8 L 6 24 C 6 25.105469 6.894531 26 8 26 L 22 26 C 23.105469 26 24 25.105469 24 24 L 24 8 Z M 6 8 "/>
</g>
</svg>
